{
  "accessors": [
    {
      "bufferView": 2,
      "componentType": 5126,
      "count": 5023,
      "max": [
        51.50705337524414,
        51.507057189941406,
        61.88515853881836
      ],
      "min": [
        -51.507057189941406,
        -51.507057189941406,
        -51.79899215698242
      ],
      "type": "VEC3"
    },
    {
      "bufferView": 2,
      "byteOffset": 60276,
      "componentType": 5126,
      "count": 5023,
      "max": [
        1.0,
        1.0,
        1.0
      ],
      "min": [
        -1.0,
        -1.0,
        -1.0
      ],
      "type": "VEC3"
    },
    {
      "bufferView": 3,
      "componentType": 5126,
      "count": 5023,
      "max": [
        1.0,
        1.0,
        0.9999901652336121,
        1.0
      ],
      "min": [
        -0.999964714050293,
        -0.9996393322944641,
        -1.0,
        1.0
      ],
      "type": "VEC4"
    },
    {
      "bufferView": 1,
      "componentType": 5126,
      "count": 5023,
      "max": [
        0.9994152784347534,
        0.9941415786743164
      ],
      "min": [
        0.0005000000237487257,
        0.0005000000237487257
      ],
      "type": "VEC2"
    },
    {
      "bufferView": 0,
      "componentType": 5125,
      "count": 27600,
      "type": "SCALAR"
    },
    {
      "bufferView": 2,
      "byteOffset": 120552,
      "componentType": 5126,
      "count": 5964,
      "max": [
        6.302154064178467,
        21.821821212768555,
        1.890731692314148
      ],
      "min": [
        -5.4739484786987305,
        -20.07805633544922,
        -7.263995170593262
      ],
      "type": "VEC3"
    },
    {
      "bufferView": 2,
      "byteOffset": 192120,
      "componentType": 5126,
      "count": 5964,
      "max": [
        0.9999279379844666,
        0.9997774362564087,
        0.9999412298202515
      ],
      "min": [
        -0.9999535083770752,
        -0.9975850582122803,
        -0.9999656081199646
      ],
      "type": "VEC3"
    },
    {
      "bufferView": 3,
      "byteOffset": 80368,
      "componentType": 5126,
      "count": 5964,
      "max": [
        0.9920660257339478,
        0.9895368218421936,
        0.9999070167541504,
        1.0
      ],
      "min": [
        -0.987695038318634,
        -0.98310786485672,
        -0.9984020590782166,
        1.0
      ],
      "type": "VEC4"
    },
    {
      "bufferView": 1,
      "byteOffset": 40184,
      "componentType": 5126,
      "count": 5964,
      "max": [
        0.9898471832275391,
        0.8059361577033997
      ],
      "min": [
        0.11437875032424927,
        0.019999999552965164
      ],
      "type": "VEC2"
    },
    {
      "bufferView": 0,
      "byteOffset": 110400,
      "componentType": 5125,
      "count": 34080,
      "type": "SCALAR"
    }
  ],
  "asset": {
    "extras": {
      "author": "Ashutosh.Varpe (https://sketchfab.com/Ashutosh.Varpe)",
      "license": "CC-BY-4.0 (http://creativecommons.org/licenses/by/4.0/)",
      "source": "https://sketchfab.com/3d-models/explosive-001-7bf2e60dc8d940a18dbcaa101a7c903f",
      "title": "Explosive 001"
    },
    "generator": "Sketchfab-12.0.1",
    "version": "2.0"
  },
  "bufferViews": [
    {
      "buffer": 0,
      "byteLength": 246720,
      "name": "floatBufferViews",
      "target": 34963
    },
    {
      "buffer": 0,
      "byteLength": 87896,
      "byteOffset": 246720,
      "byteStride": 8,
      "name": "floatBufferViews",
      "target": 34962
    },
    {
      "buffer": 0,
      "byteLength": 263688,
      "byteOffset": 334616,
      "byteStride": 12,
      "name": "floatBufferViews",
      "target": 34962
    },
    {
      "buffer": 0,
      "byteLength": 175792,
      "byteOffset": 598304,
      "byteStride": 16,
      "name": "floatBufferViews",
      "target": 34962
    }
  ],
  "buffers": [
    {
      "byteLength": 774096,
      "uri": "scene.bin"
    }
  ],
  "images": [
    {
      "uri": "textures/Material_25_baseColor.jpeg"
    },
    {
      "uri": "textures/Material_25_metallicRoughness.png"
    },
    {
      "uri": "textures/Material_25_normal.png"
    },
    {
      "uri": "textures/Material_26_baseColor.jpeg"
    },
    {
      "uri": "textures/Material_26_metallicRoughness.png"
    },
    {
      "uri": "textures/Material_26_normal.png"
    }
  ],
  "materials": [
    {
      "doubleSided": true,
      "name": "Material_25",
      "normalTexture": {
        "index": 2,
        "scale": 0.5732463260553661
      },
      "pbrMetallicRoughness": {
        "baseColorTexture": {
          "index": 0
        },
        "metallicRoughnessTexture": {
          "index": 1
        },
        "roughnessFactor": 0.7434911746286534
      }
    },
    {
      "doubleSided": true,
      "name": "Material_26",
      "normalTexture": {
        "index": 5
      },
      "pbrMetallicRoughness": {
        "baseColorTexture": {
          "index": 3
        },
        "metallicRoughnessTexture": {
          "index": 4
        }
      }
    }
  ],
  "meshes": [
    {
      "name": "Sphere001_Material #25_0",
      "primitives": [
        {
          "attributes": {
            "NORMAL": 1,
            "POSITION": 0,
            "TANGENT": 2,
            "TEXCOORD_0": 3
          },
          "indices": 4,
          "material": 0,
          "mode": 4
        }
      ]
    },
    {
      "name": "Cylinder012_Material #26_0",
      "primitives": [
        {
          "attributes": {
            "NORMAL": 6,
            "POSITION": 5,
            "TANGENT": 7,
            "TEXCOORD_0": 8
          },
          "indices": 9,
          "material": 1,
          "mode": 4
        }
      ]
    }
  ],
  "nodes": [
    {
      "children": [
        1
      ],
      "matrix": [
        1.0,
        0.0,
        0.0,
        0.0,
        0.0,
        2.220446049250313e-16,
        -1.0,
        0.0,
        0.0,
        1.0,
        2.220446049250313e-16,
        0.0,
        0.0,
        0.0,
        0.0,
        1.0
      ],
      "name": "Sketchfab_model"
    },
    {
      "children": [
        2
      ],
      "matrix": [
        0.0010000000474974513,
        0.0,
        0.0,
        0.0,
        0.0,
        0.0,
        0.0010000000474974513,
        0.0,
        0.0,
        -0.0010000000474974513,
        0.0,
        0.0,
        0.0,
        0.0,
        0.0,
        1.0
      ],
      "name": "HIGHPOLY.fbx"
    },
    {
      "children": [
        3,
        5
      ],
      "name": "RootNode"
    },
    {
      "children": [
        4
      ],
      "matrix": [
        4.3711387731626417e-08,
        -5.551115123125783e-17,
        -0.9999999999999993,
        0.0,
        -0.9999999999999993,
        0.0,
        -4.371138789815987e-08,
        0.0,
        5.551115123125783e-17,
        1.0000000000000002,
        -2.220446049250313e-16,
        0.0,
        0.9252595901489258,
        0.0,
        -0.6350843906402588,
        1.0
      ],
      "name": "Sphere001"
    },
    {
      "mesh": 0,
      "name": "Sphere001_Material #25_0"
    },
    {
      "children": [
        6
      ],
      "matrix": [
        1.2513890266418368,
        -9.134465279321185e-24,
        1.4917719681761706e-07,
        0.0,
        -2.658508642354993e-14,
        1.368836998939496,
        2.230118687370993e-07,
        0.0,
        -1.4917719681761508e-07,
        -2.0387716401931612e-07,
        1.2513890266418202,
        0.0,
        -1.15328848361969,
        70.28600311279297,
        2.4367597103118896,
        1.0
      ],
      "name": "Cylinder012"
    },
    {
      "mesh": 1,
      "name": "Cylinder012_Material #26_0"
    }
  ],
  "samplers": [
    {
      "magFilter": 9729,
      "minFilter": 9987,
      "wrapS": 10497,
      "wrapT": 10497
    }
  ],
  "scene": 0,
  "scenes": [
    {
      "name": "Sketchfab_Scene",
      "nodes": [
        0
      ]
    }
  ],
  "textures": [
    {
      "sampler": 0,
      "source": 0
    },
    {
      "sampler": 0,
      "source": 1
    },
    {
      "sampler": 0,
      "source": 2
    },
    {
      "sampler": 0,
      "source": 3
    },
    {
      "sampler": 0,
      "source": 4
    },
    {
      "sampler": 0,
      "source": 5
    }
  ]
}
