{
  "accessors": [
    {
      "bufferView": 1,
      "componentType": 5126,
      "count": 1434,
      "max": [
        1,
        3.0234200954437256,
        1.1552900075912476
      ],
      "min": [
        -1,
        0.34431999921798706,
        -1
      ],
      "type": "VEC3"
    },
    {
      "bufferView": 1,
      "byteOffset": 17208,
      "componentType": 5126,
      "count": 1434,
      "max": [
        1,
        1,
        1
      ],
      "min": [
        -1,
        -1,
        -1
      ],
      "type": "VEC3"
    },
    {
      "bufferView": 0,
      "componentType": 5125,
      "count": 3504,
      "max": [
        1433
      ],
      "min": [
        0
      ],
      "type": "SCALAR"
    },
    {
      "bufferView": 1,
      "byteOffset": 34416,
      "componentType": 5126,
      "count": 24,
      "max": [
        1,
        1,
        1
      ],
      "min": [
        -1,
        -1,
        -1
      ],
      "type": "VEC3"
    },
    {
      "bufferView": 1,
      "byteOffset": 34704,
      "componentType": 5126,
      "count": 24,
      "max": [
        1,
        1,
        1
      ],
      "min": [
        -1,
        -1,
        -1
      ],
      "type": "VEC3"
    },
    {
      "bufferView": 0,
      "byteOffset": 14016,
      "componentType": 5125,
      "count": 36,
      "max": [
        23
      ],
      "min": [
        0
      ],
      "type": "SCALAR"
    },
    {
      "bufferView": 1,
      "byteOffset": 34992,
      "componentType": 5126,
      "count": 208,
      "max": [
        1,
        0.8374599814414978,
        1
      ],
      "min": [
        -13.670479774475098,
        -1.152169942855835,
        -1
      ],
      "type": "VEC3"
    },
    {
      "bufferView": 1,
      "byteOffset": 37488,
      "componentType": 5126,
      "count": 208,
      "max": [
        1,
        1,
        1
      ],
      "min": [
        -1,
        -1,
        -1
      ],
      "type": "VEC3"
    },
    {
      "bufferView": 0,
      "byteOffset": 14160,
      "componentType": 5125,
      "count": 420,
      "max": [
        207
      ],
      "min": [
        0
      ],
      "type": "SCALAR"
    },
    {
      "bufferView": 1,
      "byteOffset": 39984,
      "componentType": 5126,
      "count": 210,
      "max": [
        1.491919994354248,
        3.6433300971984863,
        2.1281800270080566
      ],
      "min": [
        -1.491919994354248,
        3.2768099308013916,
        -2.1629900932312012
      ],
      "type": "VEC3"
    },
    {
      "bufferView": 1,
      "byteOffset": 42504,
      "componentType": 5126,
      "count": 210,
      "max": [
        1,
        1,
        1
      ],
      "min": [
        -1,
        -1,
        -1
      ],
      "type": "VEC3"
    },
    {
      "bufferView": 0,
      "byteOffset": 15840,
      "componentType": 5125,
      "count": 492,
      "max": [
        209
      ],
      "min": [
        0
      ],
      "type": "SCALAR"
    },
    {
      "bufferView": 1,
      "byteOffset": 45024,
      "componentType": 5126,
      "count": 48,
      "max": [
        1.2656799554824829,
        7.932769775390625,
        2.4631900787353516
      ],
      "min": [
        -1.2656799554824829,
        4.0283298492431641,
        -1.7295800447463989
      ],
      "type": "VEC3"
    },
    {
      "bufferView": 1,
      "byteOffset": 45600,
      "componentType": 5126,
      "count": 48,
      "max": [
        0,
        1,
        0
      ],
      "min": [
        0,
        -1,
        0
      ],
      "type": "VEC3"
    },
    {
      "bufferView": 0,
      "byteOffset": 17808,
      "componentType": 5125,
      "count": 126,
      "max": [
        47
      ],
      "min": [
        0
      ],
      "type": "SCALAR"
    },
    {
      "bufferView": 1,
      "byteOffset": 46176,
      "componentType": 5126,
      "count": 280,
      "max": [
        1.268049955368042,
        7.932769775390625,
        2.4666399955749512
      ],
      "min": [
        -1.268049955368042,
        4.0283298492431641,
        -1.7381500005722046
      ],
      "type": "VEC3"
    },
    {
      "bufferView": 1,
      "byteOffset": 49536,
      "componentType": 5126,
      "count": 280,
      "max": [
        1,
        1,
        1
      ],
      "min": [
        -1,
        -0.81086426973342896,
        -1
      ],
      "type": "VEC3"
    },
    {
      "bufferView": 0,
      "byteOffset": 18312,
      "componentType": 5125,
      "count": 1044,
      "max": [
        279
      ],
      "min": [
        0
      ],
      "type": "SCALAR"
    },
    {
      "bufferView": 1,
      "byteOffset": 52896,
      "componentType": 5126,
      "count": 90,
      "max": [
        0.57814997434616089,
        6.6860499382019043,
        2.3532299995422363
      ],
      "min": [
        -0.57814997434616089,
        4.4537801742553711,
        2.1659200191497803
      ],
      "type": "VEC3"
    },
    {
      "bufferView": 1,
      "byteOffset": 53976,
      "componentType": 5126,
      "count": 90,
      "max": [
        0,
        0.18162946403026581,
        1
      ],
      "min": [
        0,
        -0.0076800035312771797,
        0.98336708545684814
      ],
      "type": "VEC3"
    },
    {
      "bufferView": 0,
      "byteOffset": 22488,
      "componentType": 5125,
      "count": 240,
      "max": [
        89
      ],
      "min": [
        0
      ],
      "type": "SCALAR"
    },
    {
      "bufferView": 1,
      "byteOffset": 55056,
      "componentType": 5126,
      "count": 1270,
      "max": [
        1.3592499494552612,
        8.3761701583862305,
        1.0070899724960327
      ],
      "min": [
        -1.3592499494552612,
        4.0360898971557617,
        -0.82648998498916626
      ],
      "type": "VEC3"
    },
    {
      "bufferView": 1,
      "byteOffset": 70296,
      "componentType": 5126,
      "count": 1270,
      "max": [
        0.99999994039535522,
        1,
        1
      ],
      "min": [
        -0.99999994039535522,
        -1,
        -1
      ],
      "type": "VEC3"
    },
    {
      "bufferView": 0,
      "byteOffset": 23448,
      "componentType": 5125,
      "count": 3540,
      "max": [
        1269
      ],
      "min": [
        0
      ],
      "type": "SCALAR"
    },
    {
      "bufferView": 1,
      "byteOffset": 85536,
      "componentType": 5126,
      "count": 63,
      "max": [
        0.80910998582839966,
        7.9954800605773926,
        0.7903900146484375
      ],
      "min": [
        -0.80910998582839966,
        7.9515500068664551,
        0.32407999038696289
      ],
      "type": "VEC3"
    },
    {
      "bufferView": 1,
      "byteOffset": 86292,
      "componentType": 5126,
      "count": 63,
      "max": [
        0.99999994039535522,
        1,
        1
      ],
      "min": [
        -0.99999994039535522,
        -1,
        -0.35458886623382568
      ],
      "type": "VEC3"
    },
    {
      "bufferView": 0,
      "byteOffset": 37608,
      "componentType": 5125,
      "count": 174,
      "max": [
        62
      ],
      "min": [
        0
      ],
      "type": "SCALAR"
    }
  ],
  "asset": {
    "extras": {
      "author": "Hardy Noer (https://sketchfab.com/hardiegnome)",
      "license": "CC-BY-4.0 (http://creativecommons.org/licenses/by/4.0/)",
      "source": "https://sketchfab.com/models/0e6df3d1f2c44bf3a68b728bcf0157e8",
      "title": "USB FlashDrive"
    },
    "generator": "Sketchfab-3.18.6",
    "version": "2.0"
  },
  "bufferViews": [
    {
      "buffer": 0,
      "byteLength": 38304,
      "byteOffset": 0,
      "name": "floatBufferViews",
      "target": 34963
    },
    {
      "buffer": 0,
      "byteLength": 87048,
      "byteOffset": 38304,
      "byteStride": 12,
      "name": "floatBufferViews",
      "target": 34962
    }
  ],
  "buffers": [
    {
      "byteLength": 125352,
      "uri": "scene.bin"
    }
  ],
  "materials": [
    {
      "doubleSided": true,
      "emissiveFactor": [
        0,
        0,
        0
      ],
      "name": "Material.006",
      "pbrMetallicRoughness": {
        "baseColorFactor": [
          0.1167337224,
          0.1031648144,
          0.1031648144,
          1
        ],
        "metallicFactor": 0,
        "roughnessFactor": 0.59999999999999998
      }
    },
    {
      "doubleSided": true,
      "emissiveFactor": [
        0,
        0,
        0
      ],
      "name": "Material",
      "pbrMetallicRoughness": {
        "baseColorFactor": [
          0.3636653721,
          0.3636653721,
          0.3636653721,
          1
        ],
        "metallicFactor": 0,
        "roughnessFactor": 0.59999999999999998
      }
    },
    {
      "doubleSided": true,
      "emissiveFactor": [
        0,
        0,
        0
      ],
      "name": "Material.005",
      "pbrMetallicRoughness": {
        "baseColorFactor": [
          0.55264376877600008,
          0.55264376877600008,
          0.55264376877600008,
          1
        ],
        "metallicFactor": 0,
        "roughnessFactor": 0.59999999999999998
      }
    },
    {
      "doubleSided": true,
      "emissiveFactor": [
        0,
        0,
        0
      ],
      "name": "Material.004",
      "pbrMetallicRoughness": {
        "baseColorFactor": [
          0.66716277599999996,
          0.66716277599999996,
          0.66716277599999996,
          1
        ],
        "metallicFactor": 0,
        "roughnessFactor": 0.59999999999999998
      }
    },
    {
      "doubleSided": true,
      "emissiveFactor": [
        0,
        0,
        0
      ],
      "name": "Material.001",
      "pbrMetallicRoughness": {
        "baseColorFactor": [
          0.28069689869999997,
          0.17428718509999999,
          0.015388025,
          1
        ],
        "metallicFactor": 0,
        "roughnessFactor": 0.59999999999999998
      }
    },
    {
      "doubleSided": true,
      "emissiveFactor": [
        0,
        0,
        0
      ],
      "name": "Material.002",
      "pbrMetallicRoughness": {
        "baseColorFactor": [
          0.0401123278,
          0.036461438999999998,
          0.036461438999999998,
          1
        ],
        "metallicFactor": 0,
        "roughnessFactor": 0.59999999999999998
      }
    }
  ],
  "meshes": [
    {
      "name": "Cube_0",
      "primitives": [
        {
          "attributes": {
            "NORMAL": 1,
            "POSITION": 0
          },
          "indices": 2,
          "material": 1,
          "mode": 4
        }
      ]
    },
    {
      "name": "Cube.001_0",
      "primitives": [
        {
          "attributes": {
            "NORMAL": 4,
            "POSITION": 3
          },
          "indices": 5,
          "material": 5,
          "mode": 4
        }
      ]
    },
    {
      "name": "Cube.002_0",
      "primitives": [
        {
          "attributes": {
            "NORMAL": 7,
            "POSITION": 6
          },
          "indices": 8,
          "material": 4,
          "mode": 4
        }
      ]
    },
    {
      "name": "Cube.004_0",
      "primitives": [
        {
          "attributes": {
            "NORMAL": 10,
            "POSITION": 9
          },
          "indices": 11,
          "material": 3,
          "mode": 4
        }
      ]
    },
    {
      "name": "Cube.005_0",
      "primitives": [
        {
          "attributes": {
            "NORMAL": 13,
            "POSITION": 12
          },
          "indices": 14,
          "material": 1,
          "mode": 4
        }
      ]
    },
    {
      "name": "Cube.005_1",
      "primitives": [
        {
          "attributes": {
            "NORMAL": 16,
            "POSITION": 15
          },
          "indices": 17,
          "material": 2,
          "mode": 4
        }
      ]
    },
    {
      "name": "Cube.005_2",
      "primitives": [
        {
          "attributes": {
            "NORMAL": 19,
            "POSITION": 18
          },
          "indices": 20,
          "material": 0,
          "mode": 4
        }
      ]
    },
    {
      "name": "Cube.006_0",
      "primitives": [
        {
          "attributes": {
            "NORMAL": 22,
            "POSITION": 21
          },
          "indices": 23,
          "material": 0,
          "mode": 4
        }
      ]
    },
    {
      "name": "Cube.008_0",
      "primitives": [
        {
          "attributes": {
            "NORMAL": 25,
            "POSITION": 24
          },
          "indices": 26,
          "material": 0,
          "mode": 4
        }
      ]
    }
  ],
  "nodes": [
    {
      "children": [
        1
      ],
      "name": "RootNode (gltf orientation matrix)",
      "rotation": [
        -0.70710678118654746,
        -0,
        -0,
        0.70710678118654757
      ]
    },
    {
      "children": [
        2
      ],
      "name": "RootNode (model correction matrix)"
    },
    {
      "children": [
        3,
        5,
        7,
        9,
        11,
        13,
        17,
        19
      ],
      "name": "Root"
    },
    {
      "children": [
        4
      ],
      "matrix": [
        -0.75427000000000011,
        -0.65424000000000015,
        -0.05519000000000001,
        0,
        0.49625000000000002,
        -0.62313000000000007,
        0.60452000000000006,
        0,
        -0.42989000000000005,
        0.42859000000000003,
        0.7946700000000001,
        0,
        2.8930099999999999,
        -3.8875999999999999,
        5.40238,
        1
      ],
      "name": "Lamp"
    },
    {
      "name": "Lamp"
    },
    {
      "children": [
        6
      ],
      "matrix": [
        0.56440999999999997,
        0,
        0,
        0,
        0,
        0.52834999999999999,
        0,
        0,
        0,
        0,
        0.14052000000000001,
        0,
        0.011290000000000003,
        1.1759599999999999,
        0.35836000000000007,
        1
      ],
      "name": "Cube"
    },
    {
      "mesh": 0,
      "name": "Cube_0"
    },
    {
      "children": [
        8
      ],
      "matrix": [
        0.54632999999999998,
        0,
        0,
        0,
        0,
        0.68017000000000016,
        0,
        0,
        0,
        0,
        -0.046430000000000013,
        0,
        0.013180000000000002,
        2.04657,
        0.28728000000000004,
        1
      ],
      "name": "Cube.001"
    },
    {
      "mesh": 1,
      "name": "Cube.001_0"
    },
    {
      "children": [
        10
      ],
      "matrix": [
        0.060530000000000014,
        0,
        0,
        0,
        0,
        0.58222000000000007,
        0,
        0,
        0,
        0,
        -0.036920000000000001,
        0,
        0.39215000000000005,
        2.0711599999999999,
        0.30450000000000005,
        1
      ],
      "name": "Cube.002"
    },
    {
      "mesh": 2,
      "name": "Cube.002_0"
    },
    {
      "children": [
        12
      ],
      "matrix": [
        0.59252000000000005,
        0,
        0,
        0,
        0,
        1.1392899999999999,
        0,
        0,
        0,
        0,
        0.14633000000000002,
        0,
        -0.011560000000000003,
        -1.1150899999999999,
        0.32407000000000008,
        1
      ],
      "name": "Cube.004"
    },
    {
      "mesh": 3,
      "name": "Cube.004_0"
    },
    {
      "children": [
        14,
        15,
        16
      ],
      "matrix": [
        0.86255000000000004,
        0,
        0,
        0,
        0,
        1.4644599999999999,
        0,
        0,
        0,
        0,
        0.20028000000000001,
        0,
        -0.011560000000000003,
        -2.9497300000000002,
        0.26595000000000002,
        1
      ],
      "name": "Cube.005"
    },
    {
      "mesh": 4,
      "name": "Cube.005_0"
    },
    {
      "mesh": 5,
      "name": "Cube.005_1"
    },
    {
      "mesh": 6,
      "name": "Cube.005_2"
    },
    {
      "children": [
        18
      ],
      "matrix": [
        0.85086000000000006,
        0,
        0,
        0,
        0,
        1.4644599999999999,
        0,
        0,
        0,
        0,
        0.14483000000000001,
        0,
        -0.011560000000000003,
        -2.9497300000000002,
        0.35428000000000004,
        1
      ],
      "name": "Cube.006"
    },
    {
      "mesh": 7,
      "name": "Cube.006_0"
    },
    {
      "children": [
        20
      ],
      "matrix": [
        0.98245999999999989,
        0,
        0,
        0,
        0,
        1.4644599999999999,
        0,
        0,
        0,
        0,
        0.20028000000000001,
        0,
        -0.011560000000000003,
        -2.9497300000000002,
        0.26595000000000002,
        1
      ],
      "name": "Cube.008"
    },
    {
      "mesh": 8,
      "name": "Cube.008_0"
    }
  ],
  "scene": 0,
  "scenes": [
    {
      "name": "OSG_Scene",
      "nodes": [
        0
      ]
    }
  ]
}

